<mxfile host="app.diagrams.net" agent="Mozilla/5.0 (X11; Ubuntu; Linux x86_64; rv:141.0) Gecko/20100101 Firefox/141.0" version="28.1.1">
  <diagram name="Page-1" id="URkm_zsIdy71xG1-zn2m">
    <mxGraphModel dx="1935" dy="640" grid="1" gridSize="10" guides="1" tooltips="1" connect="1" arrows="1" fold="1" page="1" pageScale="1" pageWidth="850" pageHeight="1100" math="0" shadow="0">
      <root>
        <mxCell id="0" />
        <mxCell id="1" parent="0" />
        <mxCell id="2dDAKNH7k0do-McZ3fLX-53" value="" style="rounded=0;whiteSpace=wrap;html=1;strokeColor=light-dark(#000000,#0000FF);strokeWidth=2;" vertex="1" parent="1">
          <mxGeometry x="585" y="471" width="308" height="56" as="geometry" />
        </mxCell>
        <mxCell id="2dDAKNH7k0do-McZ3fLX-52" value="" style="rounded=0;whiteSpace=wrap;html=1;strokeColor=light-dark(#000000,#009900);strokeWidth=2;" vertex="1" parent="1">
          <mxGeometry x="256" y="471" width="308" height="56" as="geometry" />
        </mxCell>
        <mxCell id="2dDAKNH7k0do-McZ3fLX-51" value="" style="rounded=0;whiteSpace=wrap;html=1;strokeColor=light-dark(#000000,#FF0000);strokeWidth=2;" vertex="1" parent="1">
          <mxGeometry x="-80" y="471" width="308" height="56" as="geometry" />
        </mxCell>
        <mxCell id="2dDAKNH7k0do-McZ3fLX-1" value="&lt;font style=&quot;font-size: 30px;&quot;&gt;C&lt;/font&gt;" style="rounded=0;whiteSpace=wrap;html=1;" vertex="1" parent="1">
          <mxGeometry x="50" y="330" width="60" height="50" as="geometry" />
        </mxCell>
        <mxCell id="2dDAKNH7k0do-McZ3fLX-2" value="&lt;font style=&quot;font-size: 30px;&quot;&gt;I&lt;/font&gt;" style="rounded=0;whiteSpace=wrap;html=1;" vertex="1" parent="1">
          <mxGeometry x="110" y="330" width="60" height="50" as="geometry" />
        </mxCell>
        <mxCell id="2dDAKNH7k0do-McZ3fLX-3" value="&lt;font style=&quot;font-size: 30px;&quot;&gt;A&lt;/font&gt;" style="rounded=0;whiteSpace=wrap;html=1;" vertex="1" parent="1">
          <mxGeometry x="170" y="330" width="60" height="50" as="geometry" />
        </mxCell>
        <mxCell id="2dDAKNH7k0do-McZ3fLX-4" value="&lt;font style=&quot;font-size: 30px;&quot;&gt;O&lt;/font&gt;" style="rounded=0;whiteSpace=wrap;html=1;" vertex="1" parent="1">
          <mxGeometry x="230" y="330" width="60" height="50" as="geometry" />
        </mxCell>
        <mxCell id="2dDAKNH7k0do-McZ3fLX-5" value="" style="rounded=0;whiteSpace=wrap;html=1;" vertex="1" parent="1">
          <mxGeometry x="290" y="330" width="60" height="50" as="geometry" />
        </mxCell>
        <mxCell id="2dDAKNH7k0do-McZ3fLX-6" value="&lt;font style=&quot;font-size: 30px;&quot;&gt;S&lt;/font&gt;" style="rounded=0;whiteSpace=wrap;html=1;" vertex="1" parent="1">
          <mxGeometry x="350" y="330" width="60" height="50" as="geometry" />
        </mxCell>
        <mxCell id="2dDAKNH7k0do-McZ3fLX-7" value="&lt;font style=&quot;font-size: 30px;&quot;&gt;O&lt;/font&gt;" style="rounded=0;whiteSpace=wrap;html=1;" vertex="1" parent="1">
          <mxGeometry x="410" y="330" width="60" height="50" as="geometry" />
        </mxCell>
        <mxCell id="2dDAKNH7k0do-McZ3fLX-8" value="&lt;font style=&quot;font-size: 30px;&quot;&gt;N&lt;/font&gt;" style="rounded=0;whiteSpace=wrap;html=1;" vertex="1" parent="1">
          <mxGeometry x="470" y="330" width="60" height="50" as="geometry" />
        </mxCell>
        <mxCell id="2dDAKNH7k0do-McZ3fLX-17" value="&lt;font style=&quot;font-size: 30px;&quot;&gt;O&lt;/font&gt;" style="rounded=0;whiteSpace=wrap;html=1;" vertex="1" parent="1">
          <mxGeometry x="530" y="330" width="60" height="50" as="geometry" />
        </mxCell>
        <mxCell id="2dDAKNH7k0do-McZ3fLX-18" value="" style="rounded=0;whiteSpace=wrap;html=1;" vertex="1" parent="1">
          <mxGeometry x="590" y="330" width="60" height="50" as="geometry" />
        </mxCell>
        <mxCell id="2dDAKNH7k0do-McZ3fLX-19" value="&lt;font style=&quot;font-size: 30px;&quot;&gt;A&lt;/font&gt;" style="rounded=0;whiteSpace=wrap;html=1;" vertex="1" parent="1">
          <mxGeometry x="650" y="330" width="60" height="50" as="geometry" />
        </mxCell>
        <mxCell id="2dDAKNH7k0do-McZ3fLX-20" value="&lt;font style=&quot;font-size: 30px;&quot;&gt;L&lt;/font&gt;" style="rounded=0;whiteSpace=wrap;html=1;" vertex="1" parent="1">
          <mxGeometry x="710" y="330" width="60" height="50" as="geometry" />
        </mxCell>
        <mxCell id="2dDAKNH7k0do-McZ3fLX-22" value="" style="shape=curlyBracket;whiteSpace=wrap;html=1;rounded=1;flipH=1;labelPosition=right;verticalLabelPosition=middle;align=left;verticalAlign=middle;rotation=-90;strokeWidth=3;" vertex="1" parent="1">
          <mxGeometry x="398.25" y="-57.25" width="20" height="716.5" as="geometry" />
        </mxCell>
        <mxCell id="2dDAKNH7k0do-McZ3fLX-23" value="&lt;font style=&quot;font-size: 30px;&quot;&gt;120 bit&lt;/font&gt;" style="text;html=1;align=center;verticalAlign=middle;resizable=0;points=[];autosize=1;strokeColor=none;fillColor=none;" vertex="1" parent="1">
          <mxGeometry x="358" y="240" width="110" height="50" as="geometry" />
        </mxCell>
        <mxCell id="2dDAKNH7k0do-McZ3fLX-24" value="&lt;font style=&quot;font-size: 30px;&quot;&gt;C&lt;/font&gt;" style="rounded=0;whiteSpace=wrap;html=1;gradientColor=none;strokeColor=default;" vertex="1" parent="1">
          <mxGeometry x="-76" y="474" width="60" height="50" as="geometry" />
        </mxCell>
        <mxCell id="2dDAKNH7k0do-McZ3fLX-25" value="&lt;font style=&quot;font-size: 30px;&quot;&gt;I&lt;/font&gt;" style="rounded=0;whiteSpace=wrap;html=1;" vertex="1" parent="1">
          <mxGeometry x="-16" y="474" width="60" height="50" as="geometry" />
        </mxCell>
        <mxCell id="2dDAKNH7k0do-McZ3fLX-26" value="&lt;font style=&quot;font-size: 30px;&quot;&gt;A&lt;/font&gt;" style="rounded=0;whiteSpace=wrap;html=1;" vertex="1" parent="1">
          <mxGeometry x="44" y="474" width="60" height="50" as="geometry" />
        </mxCell>
        <mxCell id="2dDAKNH7k0do-McZ3fLX-27" value="&lt;font style=&quot;font-size: 30px;&quot;&gt;O&lt;/font&gt;" style="rounded=0;whiteSpace=wrap;html=1;" vertex="1" parent="1">
          <mxGeometry x="104" y="474" width="60" height="50" as="geometry" />
        </mxCell>
        <mxCell id="2dDAKNH7k0do-McZ3fLX-28" value="" style="rounded=0;whiteSpace=wrap;html=1;" vertex="1" parent="1">
          <mxGeometry x="164" y="474" width="60" height="50" as="geometry" />
        </mxCell>
        <mxCell id="2dDAKNH7k0do-McZ3fLX-29" value="&lt;font style=&quot;font-size: 30px;&quot;&gt;S&lt;/font&gt;" style="rounded=0;whiteSpace=wrap;html=1;" vertex="1" parent="1">
          <mxGeometry x="260" y="474" width="60" height="50" as="geometry" />
        </mxCell>
        <mxCell id="2dDAKNH7k0do-McZ3fLX-30" value="&lt;font style=&quot;font-size: 30px;&quot;&gt;O&lt;/font&gt;" style="rounded=0;whiteSpace=wrap;html=1;" vertex="1" parent="1">
          <mxGeometry x="320" y="474" width="60" height="50" as="geometry" />
        </mxCell>
        <mxCell id="2dDAKNH7k0do-McZ3fLX-31" value="&lt;font style=&quot;font-size: 30px;&quot;&gt;N&lt;/font&gt;" style="rounded=0;whiteSpace=wrap;html=1;" vertex="1" parent="1">
          <mxGeometry x="380" y="474" width="60" height="50" as="geometry" />
        </mxCell>
        <mxCell id="2dDAKNH7k0do-McZ3fLX-32" value="&lt;font style=&quot;font-size: 30px;&quot;&gt;O&lt;/font&gt;" style="rounded=0;whiteSpace=wrap;html=1;" vertex="1" parent="1">
          <mxGeometry x="440" y="474" width="60" height="50" as="geometry" />
        </mxCell>
        <mxCell id="2dDAKNH7k0do-McZ3fLX-33" value="" style="rounded=0;whiteSpace=wrap;html=1;" vertex="1" parent="1">
          <mxGeometry x="500" y="474" width="60" height="50" as="geometry" />
        </mxCell>
        <mxCell id="2dDAKNH7k0do-McZ3fLX-34" value="&lt;font style=&quot;font-size: 30px;&quot;&gt;A&lt;/font&gt;" style="rounded=0;whiteSpace=wrap;html=1;" vertex="1" parent="1">
          <mxGeometry x="589" y="474" width="60" height="50" as="geometry" />
        </mxCell>
        <mxCell id="2dDAKNH7k0do-McZ3fLX-35" value="&lt;font style=&quot;font-size: 30px;&quot;&gt;L&lt;/font&gt;" style="rounded=0;whiteSpace=wrap;html=1;" vertex="1" parent="1">
          <mxGeometry x="649" y="474" width="60" height="50" as="geometry" />
        </mxCell>
        <mxCell id="2dDAKNH7k0do-McZ3fLX-36" value="&lt;font style=&quot;font-size: 30px;&quot;&gt;0&lt;/font&gt;" style="rounded=0;whiteSpace=wrap;html=1;" vertex="1" parent="1">
          <mxGeometry x="709" y="474" width="60" height="50" as="geometry" />
        </mxCell>
        <mxCell id="2dDAKNH7k0do-McZ3fLX-37" value="&lt;font style=&quot;font-size: 30px;&quot;&gt;0&lt;/font&gt;" style="rounded=0;whiteSpace=wrap;html=1;" vertex="1" parent="1">
          <mxGeometry x="769" y="474" width="60" height="50" as="geometry" />
        </mxCell>
        <mxCell id="2dDAKNH7k0do-McZ3fLX-38" value="&lt;font style=&quot;font-size: 30px;&quot;&gt;0&lt;/font&gt;" style="rounded=0;whiteSpace=wrap;html=1;" vertex="1" parent="1">
          <mxGeometry x="829" y="474" width="60" height="50" as="geometry" />
        </mxCell>
        <mxCell id="2dDAKNH7k0do-McZ3fLX-39" value="&lt;font style=&quot;font-size: 24px;&quot;&gt;Blocco 1&lt;/font&gt;" style="text;html=1;align=center;verticalAlign=middle;resizable=0;points=[];autosize=1;strokeColor=none;fillColor=none;" vertex="1" parent="1">
          <mxGeometry x="10" y="439" width="120" height="40" as="geometry" />
        </mxCell>
        <mxCell id="2dDAKNH7k0do-McZ3fLX-40" value="&lt;font style=&quot;font-size: 24px;&quot;&gt;Blocco 2&lt;/font&gt;" style="text;html=1;align=center;verticalAlign=middle;resizable=0;points=[];autosize=1;strokeColor=none;fillColor=none;" vertex="1" parent="1">
          <mxGeometry x="353" y="434" width="120" height="40" as="geometry" />
        </mxCell>
        <mxCell id="2dDAKNH7k0do-McZ3fLX-41" value="&lt;font style=&quot;font-size: 24px;&quot;&gt;Blocco 3&lt;/font&gt;" style="text;html=1;align=center;verticalAlign=middle;resizable=0;points=[];autosize=1;strokeColor=none;fillColor=none;" vertex="1" parent="1">
          <mxGeometry x="679" y="434" width="120" height="40" as="geometry" />
        </mxCell>
        <mxCell id="2dDAKNH7k0do-McZ3fLX-45" value="" style="shape=curlyBracket;whiteSpace=wrap;html=1;rounded=1;flipH=1;labelPosition=right;verticalLabelPosition=middle;align=left;verticalAlign=middle;rotation=90;strokeWidth=3;" vertex="1" parent="1">
          <mxGeometry x="66" y="401" width="20" height="298.5" as="geometry" />
        </mxCell>
        <mxCell id="2dDAKNH7k0do-McZ3fLX-46" value="&lt;font style=&quot;font-size: 30px;&quot;&gt;50 bit&lt;/font&gt;" style="text;html=1;align=center;verticalAlign=middle;resizable=0;points=[];autosize=1;strokeColor=none;fillColor=none;" vertex="1" parent="1">
          <mxGeometry x="26" y="562" width="100" height="50" as="geometry" />
        </mxCell>
        <mxCell id="2dDAKNH7k0do-McZ3fLX-47" value="" style="shape=curlyBracket;whiteSpace=wrap;html=1;rounded=1;flipH=1;labelPosition=right;verticalLabelPosition=middle;align=left;verticalAlign=middle;rotation=90;strokeWidth=3;" vertex="1" parent="1">
          <mxGeometry x="400" y="401" width="20" height="298.5" as="geometry" />
        </mxCell>
        <mxCell id="2dDAKNH7k0do-McZ3fLX-48" value="&lt;font style=&quot;font-size: 30px;&quot;&gt;50 bit&lt;/font&gt;" style="text;html=1;align=center;verticalAlign=middle;resizable=0;points=[];autosize=1;strokeColor=none;fillColor=none;" vertex="1" parent="1">
          <mxGeometry x="360" y="562" width="100" height="50" as="geometry" />
        </mxCell>
        <mxCell id="2dDAKNH7k0do-McZ3fLX-49" value="" style="shape=curlyBracket;whiteSpace=wrap;html=1;rounded=1;flipH=1;labelPosition=right;verticalLabelPosition=middle;align=left;verticalAlign=middle;rotation=90;strokeWidth=3;" vertex="1" parent="1">
          <mxGeometry x="789.75" y="460.75" width="20" height="179" as="geometry" />
        </mxCell>
        <mxCell id="2dDAKNH7k0do-McZ3fLX-50" value="&lt;font style=&quot;font-size: 30px;&quot;&gt;padding: 30 bit&lt;/font&gt;" style="text;html=1;align=center;verticalAlign=middle;resizable=0;points=[];autosize=1;strokeColor=none;fillColor=none;" vertex="1" parent="1">
          <mxGeometry x="689.75" y="562" width="220" height="50" as="geometry" />
        </mxCell>
      </root>
    </mxGraphModel>
  </diagram>
</mxfile>
